<?xml version="1.0" standalone="no"?>
<!DOCTYPE svg PUBLIC "-//W3C//DTD SVG 20010904//EN"
 "http://www.w3.org/TR/2001/REC-SVG-20010904/DTD/svg10.dtd">
<svg version="1.0" xmlns="http://www.w3.org/2000/svg"
 width="200.000000pt" height="200.000000pt" viewBox="0 0 200.000000 200.000000"
 preserveAspectRatio="xMidYMid meet">
<g transform="translate(0.000000,200.000000) scale(0.100000,-0.100000)"
fill="red" stroke="black" stroke-width="50">
<path d="M846 1983 c-219 -46 -413 -197 -510 -394 -62 -127 -80 -200 -80 -329
1 -87 5 -119 28 -190 39 -119 133 -299 240 -459 133 -200 434 -599 457 -606
10 -4 28 -4 39 0 22 7 320 404 457 608 108 162 200 337 239 457 23 71 27 103
28 190 0 128 -18 202 -79 327 -147 300 -492 467 -819 396z m239 -398 c104 -27
179 -91 227 -192 38 -81 41 -178 7 -268 -30 -81 -112 -163 -192 -193 -131 -49
-271 -20 -368 77 -71 71 -101 144 -101 248 0 151 105 287 252 327 72 19 103
19 175 1z"/>
</g>
</svg>
